<svg width="160" height="112" viewBox="0 0 160 112" fill="none" xmlns="http://www.w3.org/2000/svg">
<g filter="url(#filter0_d_1_2)">
<path d="M42.2454 61.89H38.1054C36.7254 61.89 35.8437 62.1583 35.4604 62.695C35.0771 63.155 34.8854 63.9983 34.8854 65.225V98H19.3604C17.3671 98 15.9871 97.6933 15.2204 97.08C14.5304 96.39 14.1854 95.2783 14.1854 93.745V59.245C14.1854 56.4083 14.7604 54.3383 15.9104 53.035C17.0604 51.655 19.0921 50.965 22.0054 50.965H42.2454V61.89ZM69.6154 98H55.2404C52.6337 98 50.9087 97.5783 50.0654 96.735C49.2987 95.8917 48.9154 94.1283 48.9154 91.445V73.505C48.9154 70.8217 49.2987 69.0583 50.0654 68.215C50.9087 67.3717 52.6337 66.95 55.2404 66.95H69.6154V98ZM36.7254 45.675H22.3504C19.7437 45.675 18.0187 45.2533 17.1754 44.41C16.4087 43.5667 16.0254 41.8033 16.0254 39.12V21.295C16.0254 18.6117 16.4087 16.8483 17.1754 16.005C18.0187 15.1617 19.7437 14.74 22.3504 14.74H36.7254V45.675ZM52.7104 14.855H68.2354C70.4587 14.855 71.8771 15.2767 72.4904 16.12C73.1037 16.9633 73.4104 18.7267 73.4104 21.41V56.37C73.4104 58.2867 73.1421 59.705 72.6054 60.625C72.0687 61.4683 70.8804 61.89 69.0404 61.89H46.8454V50.965H49.6054C50.9854 50.965 51.8287 50.735 52.1354 50.275C52.5187 49.7383 52.7104 48.8567 52.7104 47.63V14.855ZM106.977 14.97V47.975C106.977 49.2017 107.245 50.0833 107.782 50.62C108.395 51.1567 109.699 51.425 111.692 51.425H120.202V62.35H105.597C101.227 62.35 97.7002 61.89 95.0169 60.97C92.4102 60.05 90.4552 58.44 89.1519 56.14C87.9252 53.7633 87.1202 51.2333 86.7369 48.55C86.4302 45.8667 86.2769 42.2633 86.2769 37.74C86.2769 33.14 86.4302 29.6517 86.7369 27.275C87.1202 24.8983 87.9252 22.675 89.1519 20.605C90.4552 18.535 92.4102 17.0783 95.0169 16.235C97.7002 15.3917 101.227 14.97 105.597 14.97H106.977ZM124.802 51.425H126.182C129.479 51.425 132.009 51.5017 133.772 51.655C135.612 51.7317 137.375 52.0767 139.062 52.69C140.749 53.2267 141.899 53.8783 142.512 54.645C143.202 55.4117 143.815 56.7533 144.352 58.67C144.965 60.51 145.31 62.5033 145.387 64.65C145.464 66.7967 145.502 69.8633 145.502 73.85C145.502 77.8367 145.464 81.0183 145.387 83.395C145.31 85.695 144.965 87.9183 144.352 90.065C143.815 92.135 143.202 93.5917 142.512 94.435C141.899 95.2783 140.749 96.045 139.062 96.735C137.375 97.3483 135.612 97.7317 133.772 97.885C132.009 97.9617 129.479 98 126.182 98H124.802V51.425ZM87.8869 72.355H102.377C103.45 72.355 104.102 72.5083 104.332 72.815C104.562 73.1217 104.677 73.7733 104.677 74.77V83.74C104.677 84.9667 104.83 85.8483 105.137 86.385C105.52 86.845 106.402 87.075 107.782 87.075H120.202V98H103.297C97.7002 98 93.4452 97.0417 90.5319 95.125C87.6952 93.2083 86.2769 89.8733 86.2769 85.12V74.77C86.2769 73.16 86.8136 72.355 87.8869 72.355ZM111.577 14.855H126.182C131.779 14.855 135.995 15.8133 138.832 17.73C141.745 19.6467 143.202 22.9817 143.202 27.735V38.085C143.202 39.695 142.665 40.5 141.592 40.5H127.102C126.029 40.5 125.377 40.3467 125.147 40.04C124.917 39.7333 124.802 39.0817 124.802 38.085V29.115C124.802 27.8883 124.61 27.045 124.227 26.585C123.92 26.0483 123.077 25.78 121.697 25.78H111.577V14.855Z" fill="#42FF00"/>
<path d="M42.2454 61.89V62.89H43.2454V61.89H42.2454ZM35.4604 62.695L36.2286 63.3352L36.2525 63.3066L36.2741 63.2762L35.4604 62.695ZM34.8854 98V99H35.8854V98H34.8854ZM15.2204 97.08L14.5133 97.7871L14.5524 97.8263L14.5957 97.8609L15.2204 97.08ZM15.9104 53.035L16.6602 53.6966L16.6696 53.686L16.6786 53.6752L15.9104 53.035ZM42.2454 50.965H43.2454V49.965H42.2454V50.965ZM69.6154 98V99H70.6154V98H69.6154ZM50.0654 96.735L49.3255 97.4077L49.3415 97.4253L49.3583 97.4421L50.0654 96.735ZM50.0654 68.215L49.3583 67.5079L49.3415 67.5247L49.3255 67.5423L50.0654 68.215ZM69.6154 66.95H70.6154V65.95H69.6154V66.95ZM36.7254 45.675V46.675H37.7254V45.675H36.7254ZM17.1754 44.41L16.4355 45.0827L16.4515 45.1003L16.4683 45.1171L17.1754 44.41ZM17.1754 16.005L16.4683 15.2979L16.4515 15.3147L16.4354 15.3323L17.1754 16.005ZM36.7254 14.74H37.7254V13.74H36.7254V14.74ZM52.7104 14.855V13.855H51.7104V14.855H52.7104ZM72.4904 16.12L73.2991 15.5318L73.2991 15.5318L72.4904 16.12ZM72.6054 60.625L73.4491 61.1619L73.4594 61.1456L73.4692 61.1289L72.6054 60.625ZM46.8454 61.89H45.8454V62.89H46.8454V61.89ZM46.8454 50.965V49.965H45.8454V50.965H46.8454ZM52.1354 50.275L51.3217 49.6938L51.3123 49.7069L51.3033 49.7203L52.1354 50.275ZM42.2454 60.89H38.1054V62.89H42.2454V60.89ZM38.1054 60.89C37.3606 60.89 36.6876 60.9612 36.118 61.1346C35.5484 61.3079 35.0086 61.607 34.6467 62.1138L36.2741 63.2762C36.2955 63.2463 36.3882 63.1429 36.7003 63.0479C37.0124 62.953 37.4701 62.89 38.1054 62.89V60.89ZM34.6922 62.0548C34.0661 62.8061 33.8854 63.9696 33.8854 65.225H35.8854C35.8854 64.027 36.088 63.5039 36.2286 63.3352L34.6922 62.0548ZM33.8854 65.225V98H35.8854V65.225H33.8854ZM34.8854 97H19.3604V99H34.8854V97ZM19.3604 97C17.3985 97 16.3259 96.6838 15.8451 96.2991L14.5957 97.8609C15.6482 98.7029 17.3357 99 19.3604 99V97ZM15.9275 96.3729C15.5082 95.9536 15.1854 95.16 15.1854 93.745H13.1854C13.1854 95.3966 13.5526 96.8264 14.5133 97.7871L15.9275 96.3729ZM15.1854 93.745V59.245H13.1854V93.745H15.1854ZM15.1854 59.245C15.1854 56.5077 15.7465 54.7322 16.6602 53.6966L15.1606 52.3734C13.7743 53.9445 13.1854 56.309 13.1854 59.245H15.1854ZM16.6786 53.6752C17.5469 52.6333 19.2071 51.965 22.0054 51.965V49.965C18.977 49.965 16.5739 50.6767 15.1422 52.3948L16.6786 53.6752ZM22.0054 51.965H42.2454V49.965H22.0054V51.965ZM41.2454 50.965V61.89H43.2454V50.965H41.2454ZM69.6154 97H55.2404V99H69.6154V97ZM55.2404 97C53.9835 97 52.9869 96.8976 52.2291 96.7124C51.4633 96.5252 51.0163 96.2717 50.7725 96.0279L49.3583 97.4421C49.9578 98.0416 50.795 98.4207 51.7542 98.6551C52.7214 98.8916 53.8906 99 55.2404 99V97ZM50.8053 96.0623C50.5899 95.8253 50.3541 95.3683 50.1801 94.5676C50.009 93.7806 49.9154 92.7462 49.9154 91.445H47.9154C47.9154 92.8271 48.0135 94.0161 48.2257 94.9924C48.435 95.955 48.7742 96.8013 49.3255 97.4077L50.8053 96.0623ZM49.9154 91.445V73.505H47.9154V91.445H49.9154ZM49.9154 73.505C49.9154 72.2038 50.009 71.1694 50.1801 70.3824C50.3541 69.5817 50.5899 69.1247 50.8053 68.8877L49.3255 67.5423C48.7742 68.1487 48.435 68.995 48.2257 69.9576C48.0135 70.9339 47.9154 72.1229 47.9154 73.505H49.9154ZM50.7725 68.9221C51.0163 68.6783 51.4633 68.4248 52.2291 68.2376C52.9869 68.0524 53.9835 67.95 55.2404 67.95V65.95C53.8906 65.95 52.7214 66.0584 51.7542 66.2949C50.795 66.5293 49.9578 66.9084 49.3583 67.5079L50.7725 68.9221ZM55.2404 67.95H69.6154V65.95H55.2404V67.95ZM68.6154 66.95V98H70.6154V66.95H68.6154ZM36.7254 44.675H22.3504V46.675H36.7254V44.675ZM22.3504 44.675C21.0935 44.675 20.0969 44.5726 19.3391 44.3873C18.5733 44.2002 18.1263 43.9467 17.8825 43.7029L16.4683 45.1171C17.0678 45.7166 17.905 46.0957 18.8642 46.3301C19.8314 46.5666 21.0006 46.675 22.3504 46.675V44.675ZM17.9153 43.7373C17.6999 43.5003 17.4641 43.0433 17.2901 42.2426C17.119 41.4556 17.0254 40.4212 17.0254 39.12H15.0254C15.0254 40.5021 15.1235 41.6911 15.3357 42.6674C15.545 43.63 15.8842 44.4763 16.4355 45.0827L17.9153 43.7373ZM17.0254 39.12V21.295H15.0254V39.12H17.0254ZM17.0254 21.295C17.0254 19.9938 17.119 18.9594 17.2901 18.1724C17.4641 17.3717 17.6999 16.9147 17.9153 16.6777L16.4354 15.3323C15.8842 15.9387 15.545 16.785 15.3357 17.7476C15.1235 18.7239 15.0254 19.9129 15.0254 21.295H17.0254ZM17.8825 16.7121C18.1263 16.4683 18.5733 16.2148 19.3391 16.0276C20.0969 15.8424 21.0935 15.74 22.3504 15.74V13.74C21.0006 13.74 19.8314 13.8484 18.8642 14.0848C17.905 14.3193 17.0678 14.6983 16.4683 15.2979L17.8825 16.7121ZM22.3504 15.74H36.7254V13.74H22.3504V15.74ZM35.7254 14.74V45.675H37.7254V14.74H35.7254ZM52.7104 15.855H68.2354V13.855H52.7104V15.855ZM68.2354 15.855C69.2939 15.855 70.0989 15.9565 70.6817 16.1298C71.2662 16.3035 71.5485 16.525 71.6817 16.7082L73.2991 15.5318C72.819 14.8716 72.0855 14.4606 71.2516 14.2127C70.416 13.9643 69.4003 13.855 68.2354 13.855V15.855ZM71.6817 16.7082C71.8557 16.9474 72.0518 17.4219 72.1952 18.2463C72.3351 19.051 72.4104 20.1004 72.4104 21.41H74.4104C74.4104 20.0363 74.3323 18.8624 74.1656 17.9037C74.0023 16.9647 73.7385 16.1359 73.2991 15.5318L71.6817 16.7082ZM72.4104 21.41V56.37H74.4104V21.41H72.4104ZM72.4104 56.37C72.4104 58.2311 72.1431 59.4328 71.7416 60.1211L73.4692 61.1289C74.141 59.9772 74.4104 58.3422 74.4104 56.37H72.4104ZM71.7617 60.0881C71.5203 60.4675 70.8183 60.89 69.0404 60.89V62.89C70.9425 62.89 72.6171 62.4692 73.4491 61.1619L71.7617 60.0881ZM69.0404 60.89H46.8454V62.89H69.0404V60.89ZM47.8454 61.89V50.965H45.8454V61.89H47.8454ZM46.8454 51.965H49.6054V49.965H46.8454V51.965ZM49.6054 51.965C50.3393 51.965 50.994 51.9051 51.536 51.7573C52.0623 51.6137 52.6213 51.3489 52.9674 50.8297L51.3033 49.7203C51.3428 49.6611 51.3269 49.7413 51.0098 49.8277C50.7085 49.9099 50.2515 49.965 49.6054 49.965V51.965ZM52.9491 50.8562C53.52 50.0571 53.7104 48.9106 53.7104 47.63H51.7104C51.7104 48.8027 51.5175 49.4196 51.3217 49.6938L52.9491 50.8562ZM53.7104 47.63V14.855H51.7104V47.63H53.7104ZM106.977 14.97H107.977V13.97H106.977V14.97ZM107.782 50.62L107.075 51.3271L107.098 51.3506L107.123 51.3726L107.782 50.62ZM120.202 51.425H121.202V50.425H120.202V51.425ZM120.202 62.35V63.35H121.202V62.35H120.202ZM95.0169 60.97L94.6841 61.913L94.6926 61.9159L95.0169 60.97ZM89.1519 56.14L88.2633 56.5986L88.2723 56.616L88.2819 56.633L89.1519 56.14ZM86.7369 48.55L85.7434 48.6635L85.745 48.6775L85.747 48.6914L86.7369 48.55ZM86.7369 27.275L85.7497 27.1158L85.7472 27.1314L85.7451 27.147L86.7369 27.275ZM89.1519 20.605L88.3057 20.0722L88.2985 20.0836L88.2916 20.0952L89.1519 20.605ZM95.0169 16.235L94.7171 15.281L94.7091 15.2836L95.0169 16.235ZM124.802 51.425V50.425H123.802V51.425H124.802ZM133.772 51.655L133.685 52.6512L133.708 52.6532L133.73 52.6541L133.772 51.655ZM139.062 52.69L138.72 53.6298L138.739 53.6367L138.759 53.6429L139.062 52.69ZM142.512 54.645L141.731 55.2697L141.749 55.2924L141.769 55.314L142.512 54.645ZM144.352 58.67L143.389 58.9396L143.396 58.9631L143.403 58.9862L144.352 58.67ZM145.387 64.65L146.386 64.6143L146.386 64.6143L145.387 64.65ZM145.387 83.395L146.386 83.4283L146.386 83.4272L145.387 83.395ZM144.352 90.065L143.39 89.7903L143.387 89.8021L143.384 89.814L144.352 90.065ZM142.512 94.435L141.738 93.8018L141.72 93.8238L141.703 93.8468L142.512 94.435ZM139.062 96.735L139.404 97.6748L139.422 97.668L139.441 97.6605L139.062 96.735ZM133.772 97.885L133.815 98.8841L133.835 98.8832L133.855 98.8815L133.772 97.885ZM124.802 98H123.802V99H124.802V98ZM104.332 72.815L105.132 72.215L105.132 72.215L104.332 72.815ZM105.137 86.385L104.269 86.8811L104.312 86.9576L104.369 87.0252L105.137 86.385ZM120.202 87.075H121.202V86.075H120.202V87.075ZM120.202 98V99H121.202V98H120.202ZM90.5319 95.125L89.972 95.9537L89.9823 95.9604L90.5319 95.125ZM111.577 14.855V13.855H110.577V14.855H111.577ZM138.832 17.73L138.272 18.5586L138.282 18.5654L138.832 17.73ZM124.227 26.585L123.359 27.0811L123.402 27.1576L123.459 27.2252L124.227 26.585ZM111.577 25.78H110.577V26.78H111.577V25.78ZM105.977 14.97V47.975H107.977V14.97H105.977ZM105.977 47.975C105.977 49.3103 106.263 50.5154 107.075 51.3271L108.489 49.9129C108.227 49.6512 107.977 49.0931 107.977 47.975H105.977ZM107.123 51.3726C107.618 51.8053 108.292 52.0539 109.018 52.2032C109.76 52.356 110.657 52.425 111.692 52.425V50.425C110.733 50.425 109.982 50.3599 109.421 50.2443C108.843 50.1253 108.559 49.9714 108.44 49.8674L107.123 51.3726ZM111.692 52.425H120.202V50.425H111.692V52.425ZM119.202 51.425V62.35H121.202V51.425H119.202ZM120.202 61.35H105.597V63.35H120.202V61.35ZM105.597 61.35C101.284 61.35 97.8797 60.8944 95.3412 60.0241L94.6926 61.9159C97.5208 62.8856 101.17 63.35 105.597 63.35V61.35ZM95.3497 60.027C92.9592 59.1833 91.2005 57.7269 90.0219 55.647L88.2819 56.633C89.7099 59.1531 91.8613 60.9167 94.6841 61.913L95.3497 60.027ZM90.0405 55.6814C88.8658 53.4054 88.0946 50.9828 87.7269 48.4086L85.747 48.6914C86.1459 51.4839 86.9847 54.1213 88.2633 56.5986L90.0405 55.6814ZM87.7304 48.4365C87.43 45.8075 87.2769 42.247 87.2769 37.74H85.2769C85.2769 42.2797 85.4305 45.9259 85.7434 48.6635L87.7304 48.4365ZM87.2769 37.74C87.2769 33.1515 87.4304 29.7146 87.7287 27.403L85.7451 27.147C85.4301 29.5887 85.2769 33.1285 85.2769 37.74H87.2769ZM87.7242 27.4342C88.0875 25.1813 88.8495 23.0769 90.0122 21.1148L88.2916 20.0952C87.001 22.2731 86.153 24.6154 85.7497 27.1158L87.7242 27.4342ZM89.9981 21.1378C91.1615 19.2901 92.9126 17.9668 95.3247 17.1864L94.7091 15.2836C91.9079 16.1898 89.749 17.7799 88.3057 20.0722L89.9981 21.1378ZM95.3167 17.189C97.8649 16.3881 101.279 15.97 105.597 15.97V13.97C101.175 13.97 97.5356 14.3952 94.7171 15.281L95.3167 17.189ZM105.597 15.97H106.977V13.97H105.597V15.97ZM124.802 52.425H126.182V50.425H124.802V52.425ZM126.182 52.425C129.47 52.425 131.966 52.5017 133.685 52.6512L133.859 50.6588C132.052 50.5016 129.487 50.425 126.182 50.425V52.425ZM133.73 52.6541C135.471 52.7266 137.132 53.0524 138.72 53.6298L139.404 51.7502C137.618 51.1009 135.753 50.7367 133.814 50.6559L133.73 52.6541ZM138.759 53.6429C140.388 54.1614 141.305 54.7377 141.731 55.2697L143.293 54.0203C142.492 53.0189 141.109 52.2919 139.365 51.7371L138.759 53.6429ZM141.769 55.314C142.299 55.9028 142.862 57.0581 143.389 58.9396L145.315 58.4004C144.768 56.4486 144.105 54.9206 143.255 53.976L141.769 55.314ZM143.403 58.9862C143.983 60.7265 144.314 62.6243 144.388 64.6857L146.386 64.6143C146.307 62.3823 145.947 60.2935 145.301 58.3538L143.403 58.9862ZM144.388 64.6857C144.464 66.8144 144.502 69.867 144.502 73.85H146.502C146.502 69.8596 146.464 66.7789 146.386 64.6143L144.388 64.6857ZM144.502 73.85C144.502 77.832 144.464 81.0016 144.387 83.3628L146.386 83.4272C146.464 81.0351 146.502 77.8413 146.502 73.85H144.502ZM144.387 83.3617C144.313 85.5825 143.981 87.7246 143.39 89.7903L145.313 90.3397C145.95 88.112 146.307 85.8075 146.386 83.4283L144.387 83.3617ZM143.384 89.814C142.855 91.8533 142.285 93.1333 141.738 93.8018L143.286 95.0682C144.119 94.0501 144.775 92.4167 145.32 90.316L143.384 89.814ZM141.703 93.8468C141.253 94.4653 140.31 95.1438 138.683 95.8095L139.441 97.6605C141.187 96.9462 142.544 96.0914 143.321 95.0232L141.703 93.8468ZM138.72 95.7952C137.119 96.3774 135.443 96.7423 133.689 96.8885L133.855 98.8815C135.781 98.7211 137.631 98.3193 139.404 97.6748L138.72 95.7952ZM133.728 96.8859C131.987 96.9617 129.474 97 126.182 97V99C129.483 99 132.03 98.9617 133.815 98.8841L133.728 96.8859ZM126.182 97H124.802V99H126.182V97ZM125.802 98V51.425H123.802V98H125.802ZM87.8869 73.355H102.377V71.355H87.8869V73.355ZM102.377 73.355C102.877 73.355 103.222 73.3917 103.442 73.4434C103.693 73.5026 103.63 73.5455 103.532 73.415L105.132 72.215C104.804 71.7778 104.3 71.5907 103.9 71.4966C103.468 71.3949 102.95 71.355 102.377 71.355V73.355ZM103.532 73.415C103.507 73.3824 103.559 73.4392 103.606 73.7075C103.65 73.955 103.677 74.3039 103.677 74.77H105.677C105.677 74.2395 105.647 73.7641 105.575 73.36C105.508 72.9766 105.386 72.5543 105.132 72.215L103.532 73.415ZM103.677 74.77V83.74H105.677V74.77H103.677ZM103.677 83.74C103.677 85.0005 103.826 86.1061 104.269 86.8811L106.005 85.8889C105.835 85.5906 105.677 84.9329 105.677 83.74H103.677ZM104.369 87.0252C104.747 87.4793 105.29 87.7283 105.833 87.8701C106.387 88.0146 107.046 88.075 107.782 88.075V86.075C107.138 86.075 106.666 86.0204 106.338 85.9349C106 85.8467 105.91 85.7507 105.905 85.7448L104.369 87.0252ZM107.782 88.075H120.202V86.075H107.782V88.075ZM119.202 87.075V98H121.202V87.075H119.202ZM120.202 97H103.297V99H120.202V97ZM103.297 97C97.7879 97 93.7604 96.052 91.0815 94.2896L89.9823 95.9604C93.1301 98.0314 97.6126 99 103.297 99V97ZM91.0918 94.2964C88.6293 92.6325 87.2769 89.6817 87.2769 85.12H85.2769C85.2769 90.065 86.7612 93.7841 89.9721 95.9536L91.0918 94.2964ZM87.2769 85.12V74.77H85.2769V85.12H87.2769ZM87.2769 74.77C87.2769 74.0445 87.4036 73.6753 87.5115 73.5134C87.5717 73.4232 87.6416 73.355 87.8869 73.355V71.355C87.0589 71.355 86.3238 71.6893 85.8474 72.404C85.4186 73.0472 85.2769 73.8855 85.2769 74.77H87.2769ZM111.577 15.855H126.182V13.855H111.577V15.855ZM126.182 15.855C131.694 15.855 135.675 16.8042 138.272 18.5586L139.392 16.9014C136.315 14.8225 131.863 13.855 126.182 13.855V15.855ZM138.282 18.5654C140.818 20.2337 142.202 23.1836 142.202 27.735H144.202C144.202 22.7798 142.672 19.0597 139.382 16.8946L138.282 18.5654ZM142.202 27.735V38.085H144.202V27.735H142.202ZM142.202 38.085C142.202 38.8105 142.075 39.1797 141.967 39.3415C141.907 39.4318 141.837 39.5 141.592 39.5V41.5C142.42 41.5 143.155 41.1657 143.631 40.4509C144.06 39.8078 144.202 38.9695 144.202 38.085H142.202ZM141.592 39.5H127.102V41.5H141.592V39.5ZM127.102 39.5C126.602 39.5 126.257 39.4633 126.037 39.4116C125.786 39.3524 125.849 39.3095 125.947 39.44L124.347 40.64C124.675 41.0772 125.179 41.2643 125.579 41.3584C126.011 41.4601 126.528 41.5 127.102 41.5V39.5ZM125.947 39.44C125.971 39.4726 125.92 39.4158 125.873 39.1475C125.829 38.9 125.802 38.5511 125.802 38.085H123.802C123.802 38.6155 123.832 39.0909 123.903 39.495C123.971 39.8784 124.092 40.3007 124.347 40.64L125.947 39.44ZM125.802 38.085V29.115H123.802V38.085H125.802ZM125.802 29.115C125.802 27.8596 125.621 26.6961 124.995 25.9448L123.459 27.2252C123.599 27.3939 123.802 27.917 123.802 29.115H125.802ZM125.095 26.0889C124.773 25.5246 124.226 25.2059 123.668 25.0283C123.109 24.8506 122.439 24.78 121.697 24.78V26.78C122.335 26.78 122.776 26.8436 123.061 26.9342C123.346 27.0249 123.374 27.1087 123.359 27.0811L125.095 26.0889ZM121.697 24.78H111.577V26.78H121.697V24.78ZM112.577 25.78V14.855H110.577V25.78H112.577Z" fill="#083810"/>
</g>
<defs>
<filter id="filter0_d_1_2" x="0.185364" y="0.739994" width="159.317" height="111.26" filterUnits="userSpaceOnUse" color-interpolation-filters="sRGB">
<feFlood flood-opacity="0" result="BackgroundImageFix"/>
<feColorMatrix in="SourceAlpha" type="matrix" values="0 0 0 0 0 0 0 0 0 0 0 0 0 0 0 0 0 0 127 0" result="hardAlpha"/>
<feOffset/>
<feGaussianBlur stdDeviation="7"/>
<feComposite in2="hardAlpha" operator="out"/>
<feColorMatrix type="matrix" values="0 0 0 0 0.0513542 0 0 0 0 0.425 0 0 0 0 0.0663001 0 0 0 1 0"/>
<feBlend mode="normal" in2="BackgroundImageFix" result="effect1_dropShadow_1_2"/>
<feBlend mode="normal" in="SourceGraphic" in2="effect1_dropShadow_1_2" result="shape"/>
</filter>
</defs>
</svg>
